<?xml version="1.0" encoding="utf-8"?>
<!-- Generator: Adobe Illustrator 16.0.0, SVG Export Plug-In . SVG Version: 6.00 Build 0)  -->
<!DOCTYPE svg PUBLIC "-//W3C//DTD SVG 1.1//EN" "http://www.w3.org/Graphics/SVG/1.1/DTD/svg11.dtd">
<svg version="1.1" id="Layer_1" xmlns="http://www.w3.org/2000/svg" xmlns:xlink="http://www.w3.org/1999/xlink" x="0px" y="0px"
	 width="30px" height="30px" viewBox="0 0 30 30" enable-background="new 0 0 30 30" xml:space="preserve">
<path fill="#000000" d="M14.999,29.441c-7.974,0-14.461-6.489-14.461-14.463c0-7.976,6.488-14.464,14.461-14.464
	c7.978,0,14.464,6.488,14.464,14.464C29.463,22.952,22.977,29.441,14.999,29.441 M14.999,2.328c-6.975,0-12.649,5.674-12.649,12.65
	s5.674,12.65,12.649,12.65c6.976,0,12.649-5.674,12.649-12.65C27.648,8.001,21.975,2.328,14.999,2.328"/>
<path fill="#000000" d="M14.999,21.575c-3.55,0-6.44-2.888-6.44-6.44c0-3.552,2.89-6.44,6.44-6.44c3.551,0,6.44,2.888,6.44,6.44
	C21.439,18.688,18.55,21.575,14.999,21.575 M14.999,10.509c-2.55,0-4.624,2.076-4.624,4.626c0,2.551,2.074,4.626,4.624,4.626
	c2.551,0,4.627-2.075,4.627-4.626S17.55,10.509,14.999,10.509"/>
</svg>
