<?xml version="1.0" encoding="utf-8"?>
<!-- Generator: Adobe Illustrator 16.0.0, SVG Export Plug-In . SVG Version: 6.00 Build 0)  -->
<!DOCTYPE svg PUBLIC "-//W3C//DTD SVG 1.1//EN" "http://www.w3.org/Graphics/SVG/1.1/DTD/svg11.dtd">
<svg version="1.1" id="Layer_1" xmlns="http://www.w3.org/2000/svg" xmlns:xlink="http://www.w3.org/1999/xlink" x="0px" y="0px"
	 width="30px" height="30px" viewBox="0 0 30 30" enable-background="new 0 0 30 30" xml:space="preserve">
<path fill="#000000" d="M15.932,19.586c-1.377,0-2.452-0.628-3.507-1.988c-0.797-1.029-0.441-2.922-0.011-3.941
	c0.418-0.986,1.01-1.549,1.708-1.627c1.415-0.159,2.741,0.246,3.735,1.135c0.8,0.716,1.317,1.714,1.317,2.541l0.011,0.424
	c0.035,0.98,0.106,2.809-1.879,3.28C16.814,19.523,16.357,19.586,15.932,19.586 M14.728,13.732c-0.132,0-0.27,0.008-0.415,0.024
	c-0.057,0.062-0.4,0.599-0.558,1.456c-0.142,0.763-0.028,1.228,0.044,1.321c0.963,1.242,1.684,1.521,3.105,1.186
	c0.476-0.113,0.59-0.305,0.543-1.525c-0.006-0.168-0.012-0.332-0.012-0.488c0-0.243-0.229-0.791-0.737-1.247
	C16.312,14.113,15.673,13.732,14.728,13.732"/>
<path fill="#000000" d="M18.266,22.886c-2.948,0-9.859-1.93-9.859-5.672c0-2.792,1.524-9.486,5.296-9.486
	c3.36,0,8.511,3.917,8.511,7.302C22.212,17.579,22.212,22.886,18.266,22.886 M13.701,9.465c-1.964,0-3.559,4.689-3.559,7.749
	c0,1.99,5.142,3.935,8.124,3.935c1.547,0,2.207-1.83,2.207-6.119C20.475,12.683,16.154,9.465,13.701,9.465"/>
<path fill="#000000" d="M19.82,26.328c-5.095,0-15.012-2.979-15.012-8.438c0-4.833,3.37-13.71,8.874-13.71
	c5.38,0,11.993,6.24,11.993,11.315C25.676,19.548,25.676,26.328,19.82,26.328 M13.683,5.917c-3.871,0-7.137,7.355-7.137,11.974
	c0,3.871,8.73,6.699,13.274,6.699c3.443,0,4.117-3.335,4.117-9.095C23.938,11.377,18.091,5.917,13.683,5.917"/>
<path fill="#000000" d="M20.055,29.623c-6.5,0-19.155-4.247-19.155-12.038c0-6.851,5.105-17.208,12.802-17.208
	c5.526,0,15.399,5.254,15.399,15.725C29.102,21.906,28.162,29.623,20.055,29.623 M13.701,2.115c-6.313,0-11.064,9.386-11.064,15.47
	c0,5.878,10.568,10.302,17.417,10.302c5.122,0,7.309-3.525,7.309-11.785C27.361,6.918,18.469,2.115,13.701,2.115"/>
</svg>
