<?xml version="1.0" encoding="utf-8"?>
<!-- Generator: Adobe Illustrator 16.0.0, SVG Export Plug-In . SVG Version: 6.00 Build 0)  -->
<!DOCTYPE svg PUBLIC "-//W3C//DTD SVG 1.1//EN" "http://www.w3.org/Graphics/SVG/1.1/DTD/svg11.dtd">
<svg version="1.1" id="Layer_1" xmlns="http://www.w3.org/2000/svg" xmlns:xlink="http://www.w3.org/1999/xlink" x="0px" y="0px"
	 width="30px" height="30px" viewBox="0 0 30 30" enable-background="new 0 0 30 30" xml:space="preserve">
<path fill="#000000" d="M29.57,15.043c0-4.432-2-8.397-5.137-11.064c0.64,1.217,1.047,2.569,1.164,4.005
	c1.358,2.021,2.151,4.449,2.151,7.06c0,2.606-0.792,5.031-2.146,7.052c-0.104,1.406-0.483,2.734-1.084,3.938
	C27.605,23.366,29.57,19.434,29.57,15.043"/>
<path fill="#000000" d="M2.337,15.043c0-2.611,0.793-5.039,2.147-7.06C4.607,6.548,5.013,5.195,5.65,3.98
	c-3.136,2.666-5.134,6.632-5.134,11.063c0,4.391,1.964,8.321,5.052,10.986c-0.604-1.202-0.981-2.53-1.088-3.937
	C3.129,20.074,2.337,17.648,2.337,15.043"/>
<path fill="#000000" d="M7.063,24.916c0.778,1.708,2.091,3.102,3.721,4.014c1.347,0.413,2.777,0.639,4.259,0.639
	c1.482,0,2.912-0.226,4.262-0.639c1.627-0.912,2.942-2.306,3.719-4.014c-2.184,1.766-4.959,2.831-7.98,2.831
	C12.022,27.747,9.245,26.682,7.063,24.916"/>
<path fill="#000000" d="M22.936,5.102c-0.84-1.748-2.235-3.162-3.969-4.034c-1.249-0.351-2.562-0.552-3.923-0.552
	c-1.36,0-2.674,0.202-3.925,0.552C9.39,1.94,7.993,3.354,7.15,5.102c2.17-1.726,4.912-2.766,7.893-2.766
	C18.027,2.336,20.768,3.376,22.936,5.102"/>
<path fill="#000000" d="M7.701,16.511c-0.452-0.435-0.865-0.911-1.233-1.42C5.197,16.838,4.44,18.979,4.44,21.3
	c0,0.269,0.021,0.53,0.042,0.792c0.713,1.068,1.585,2.018,2.582,2.824C6.56,23.811,6.262,22.593,6.262,21.3
	C6.262,19.532,6.798,17.893,7.701,16.511"/>
<path fill="#000000" d="M7.701,13.67c0.334,0.51,0.71,0.99,1.143,1.421c1.589-1.587,3.782-2.571,6.2-2.571s4.612,0.984,6.201,2.571
	c0.431-0.431,0.808-0.911,1.144-1.421c-1.91-1.835-4.494-2.972-7.344-2.972C12.193,10.698,9.608,11.835,7.701,13.67"/>
<path fill="#000000" d="M23.617,15.091c-0.368,0.509-0.779,0.985-1.232,1.42c0.904,1.382,1.438,3.021,1.438,4.789
	c0,1.293-0.298,2.511-0.8,3.616c0.994-0.807,1.867-1.756,2.582-2.822c0.02-0.264,0.041-0.525,0.041-0.794
	C25.646,18.98,24.889,16.838,23.617,15.091"/>
<path fill="#000000" d="M7.063,24.916c-0.997-0.807-1.869-1.756-2.582-2.822c0.103,1.405,0.484,2.733,1.086,3.938
	c1.505,1.299,3.27,2.3,5.216,2.898C9.155,28.018,7.841,26.624,7.063,24.916"/>
<path fill="#000000" d="M23.023,24.916c-0.775,1.708-2.094,3.102-3.719,4.014c1.941-0.599,3.709-1.6,5.213-2.897
	c0.603-1.201,0.982-2.532,1.086-3.938C24.891,23.16,24.02,24.109,23.023,24.916"/>
<path fill="#000000" d="M21.244,15.091c-1.59,1.587-3.782,2.569-6.199,2.569c-2.419,0-4.613-0.982-6.203-2.569
	C8.413,15.521,8.034,16,7.701,16.511c1.906,1.837,4.493,2.974,7.344,2.974c2.85,0,5.434-1.139,7.34-2.974
	C22.053,16,21.675,15.521,21.244,15.091"/>
<path fill="#000000" d="M6.468,15.091c0.369-0.51,0.78-0.987,1.233-1.421c-0.903-1.38-1.439-3.021-1.439-4.79
	c0-1.357,0.336-2.629,0.889-3.778c-1.027,0.819-1.93,1.787-2.665,2.88C4.461,8.279,4.44,8.578,4.44,8.88
	C4.44,11.2,5.197,13.343,6.468,15.091"/>
<path fill="#000000" d="M22.936,5.102c0.551,1.149,0.889,2.421,0.889,3.78c0,1.767-0.536,3.408-1.438,4.788
	c0.451,0.436,0.862,0.911,1.23,1.421c1.271-1.748,2.029-3.891,2.029-6.209c0-0.304-0.021-0.603-0.047-0.9
	C24.867,6.891,23.963,5.92,22.936,5.102"/>
<path fill="#000000" d="M22.936,5.102c1.027,0.818,1.933,1.789,2.666,2.88c-0.123-1.434-0.527-2.789-1.166-4.005
	c-1.57-1.334-3.43-2.336-5.469-2.909C20.699,1.94,22.096,3.354,22.936,5.102"/>
<path fill="#000000" d="M7.15,5.102c0.843-1.748,2.24-3.162,3.969-4.034C9.081,1.641,7.221,2.644,5.652,3.979
	c-0.639,1.216-1.045,2.57-1.166,4.003C5.219,6.891,6.122,5.92,7.15,5.102"/>
<path fill="#000000" d="M21.244,15.091c0.431,0.431,0.809,0.909,1.141,1.42c0.453-0.435,0.864-0.911,1.232-1.42
	c-0.368-0.51-0.779-0.987-1.232-1.421C22.053,14.18,21.675,14.66,21.244,15.091"/>
<path fill="#000000" d="M8.842,15.091C8.413,14.66,8.034,14.18,7.7,13.67c-0.451,0.434-0.861,0.911-1.232,1.421
	c0.371,0.509,0.781,0.985,1.232,1.42C8.034,16,8.413,15.521,8.842,15.091"/>
</svg>
