<?xml version="1.0" encoding="utf-8"?>
<!-- Generator: Adobe Illustrator 16.0.0, SVG Export Plug-In . SVG Version: 6.00 Build 0)  -->
<!DOCTYPE svg PUBLIC "-//W3C//DTD SVG 1.1//EN" "http://www.w3.org/Graphics/SVG/1.1/DTD/svg11.dtd">
<svg version="1.1" id="Layer_1" xmlns="http://www.w3.org/2000/svg" xmlns:xlink="http://www.w3.org/1999/xlink" x="0px" y="0px"
	 width="30px" height="30px" viewBox="0 0 30 30" enable-background="new 0 0 30 30" xml:space="preserve">
<path fill="#000000" d="M16.876,26.277c-0.733,0-1.768-0.488-3.536-1.351c-2.928-1.422-7.349-3.575-9.252-1.725
	c-0.167,0.164-0.401,0.235-0.632,0.202c-0.232-0.034-0.433-0.18-0.543-0.385c-1.272-2.367-2.471-5.338-2.522-5.465
	C0.3,17.33,0.326,17.074,0.46,16.869c0.05-0.074,4.997-7.635,5.312-11.112c0.034-0.378,0.345-0.668,0.724-0.679
	c2.034-0.048,3.547-0.235,4.762-0.385c3.028-0.376,4.696-0.581,8.915,1.651c5.749,3.046,9.119,6.217,9.259,6.352
	c0.155,0.146,0.239,0.352,0.231,0.565c-0.009,0.211-0.104,0.413-0.269,0.548c-1.285,1.063-4.615,4.305-4.615,6.5v4.043
	c0,0.349-0.242,0.648-0.582,0.728C23.98,25.127,18.876,26.277,16.876,26.277 M6.147,20.984c2.495,0,5.467,1.447,7.845,2.604
	c1.152,0.562,2.46,1.199,2.884,1.199c1.466,0,5.015-0.731,6.412-1.035v-3.442c0-2.685,3.08-5.79,4.501-7.08
	c-1.207-1.029-4.132-3.356-8.316-5.571c-3.803-2.013-5.13-1.85-8.032-1.49c-1.122,0.139-2.489,0.309-4.283,0.377
	c-0.692,3.551-4.304,9.35-5.239,10.811c0.31,0.746,1.071,2.539,1.906,4.188C4.517,21.15,5.304,20.984,6.147,20.984"/>
<path fill="#000000" d="M2.652,20.93c-0.214,0-0.426-0.094-0.572-0.271c-0.265-0.313-0.221-0.785,0.095-1.05l4.948-4.114
	l-3.637-2.322c-0.347-0.221-0.448-0.684-0.227-1.03c0.221-0.346,0.681-0.449,1.028-0.226l4.497,2.872
	c0.201,0.128,0.329,0.343,0.343,0.581c0.015,0.237-0.083,0.468-0.267,0.618l-5.731,4.77C2.989,20.871,2.819,20.93,2.652,20.93"/>
<path fill="#000000" d="M16.16,13.289c-0.174,0-0.348-0.061-0.488-0.184L7.87,6.298c-0.309-0.27-0.341-0.742-0.071-1.052
	C8.071,4.938,8.543,4.905,8.85,5.175l7.8,6.808c0.31,0.27,0.343,0.742,0.072,1.052C16.575,13.203,16.369,13.289,16.16,13.289"/>
<path fill="#000000" d="M11.544,18.193c-0.188,0-0.375-0.068-0.521-0.213c-0.293-0.285-0.301-0.758-0.013-1.051l9.53-9.762
	c0.287-0.293,0.76-0.299,1.052-0.013c0.297,0.289,0.303,0.76,0.016,1.054l-9.529,9.762C11.93,18.119,11.738,18.193,11.544,18.193"/>
<path fill="#000000" d="M22.38,16.316c-0.101,0-0.2-0.021-0.297-0.062c-0.378-0.166-0.551-0.605-0.385-0.981l2.428-5.547
	c0.164-0.376,0.601-0.551,0.981-0.384c0.377,0.166,0.547,0.605,0.383,0.981l-2.428,5.546C22.941,16.148,22.667,16.316,22.38,16.316"
	/>
<path fill="#000000" d="M25.812,17.18c-0.061,0-0.121-0.008-0.182-0.022L22.2,16.293c-0.4-0.1-0.642-0.503-0.541-0.903
	c0.099-0.4,0.508-0.645,0.901-0.542l3.435,0.863c0.397,0.1,0.642,0.504,0.539,0.902C26.45,16.953,26.146,17.18,25.812,17.18"/>
<path fill="#000000" d="M18.337,19.297c-0.139,0-0.276-0.037-0.399-0.117l-4.357-2.801c-0.345-0.223-0.446-0.684-0.222-1.03
	c0.221-0.345,0.68-0.447,1.028-0.224l4.356,2.8c0.345,0.224,0.443,0.683,0.223,1.029C18.823,19.176,18.583,19.297,18.337,19.297"/>
<path fill="#000000" d="M18.339,19.297c-0.229,0-0.455-0.105-0.6-0.303c-0.245-0.332-0.175-0.797,0.155-1.041l4.045-2.981
	c0.332-0.244,0.795-0.174,1.041,0.156c0.244,0.332,0.174,0.799-0.158,1.042l-4.041,2.982C18.646,19.25,18.492,19.297,18.339,19.297"
	/>
<path fill="#000000" d="M18.092,26.188h-0.029c-0.408-0.014-0.73-0.36-0.715-0.77l0.248-6.893c0.016-0.414,0.359-0.715,0.771-0.717
	c0.411,0.012,0.731,0.358,0.717,0.77l-0.246,6.893C18.82,25.873,18.49,26.188,18.092,26.188"/>
<path fill="#000000" d="M10.768,23.662c-0.035,0-0.07-0.004-0.104-0.008c-0.408-0.059-0.69-0.437-0.634-0.842l0.776-5.47
	c0.058-0.405,0.434-0.678,0.843-0.633c0.407,0.06,0.689,0.437,0.633,0.845l-0.776,5.467C11.452,23.393,11.133,23.662,10.768,23.662"
	/>
<path fill="#000000" d="M11.543,18.193c-0.14,0-0.278-0.037-0.402-0.115l-3.162-2.035c-0.345-0.225-0.445-0.683-0.222-1.029
	c0.22-0.347,0.684-0.445,1.028-0.224l3.162,2.033c0.345,0.223,0.445,0.684,0.223,1.028C12.028,18.072,11.788,18.193,11.543,18.193"
	/>
</svg>
