<?xml version="1.0" encoding="utf-8"?>
<!-- Generator: Adobe Illustrator 16.0.0, SVG Export Plug-In . SVG Version: 6.00 Build 0)  -->
<!DOCTYPE svg PUBLIC "-//W3C//DTD SVG 1.1//EN" "http://www.w3.org/Graphics/SVG/1.1/DTD/svg11.dtd">
<svg version="1.1" id="Layer_1" xmlns="http://www.w3.org/2000/svg" xmlns:xlink="http://www.w3.org/1999/xlink" x="0px" y="0px"
	 width="30px" height="30px" viewBox="0 0 30 30" enable-background="new 0 0 30 30" xml:space="preserve">
<path fill="#000000" d="M4.835,22.92c-0.391,0.51-0.753,1.044-1.065,1.607c0.388,0.466,0.81,0.895,1.251,1.306
	c0.451-0.42,0.928-0.813,1.428-1.173C5.859,24.132,5.319,23.55,4.835,22.92"/>
<path fill="#000000" d="M3.77,21.311c-0.287-0.521-0.529-1.066-0.743-1.627c-0.334,0.877-0.573,1.805-0.706,2.767
	c0.091,0.157,0.188,0.313,0.286,0.469C2.962,22.357,3.343,21.816,3.77,21.311"/>
<path fill="#000000" d="M23.465,24.661c0.502,0.36,0.979,0.752,1.428,1.172c0.44-0.41,0.863-0.842,1.252-1.304
	c-0.312-0.567-0.677-1.1-1.064-1.609C24.596,23.55,24.055,24.132,23.465,24.661"/>
<path fill="#000000" d="M2.186,15.162c0-7.042,5.729-12.77,12.772-12.77c7.042,0,12.769,5.728,12.769,12.77
	c0,0.596-0.055,1.177-0.133,1.751c0.504,0.87,0.924,1.795,1.239,2.767c0.467-1.424,0.726-2.938,0.726-4.518
	c0-8.051-6.551-14.602-14.601-14.602c-8.053,0-14.603,6.55-14.603,14.602c0,1.578,0.258,3.094,0.722,4.518
	c0.318-0.972,0.739-1.895,1.243-2.767C2.24,16.339,2.186,15.758,2.186,15.162"/>
<path fill="#000000" d="M26.145,21.311c0.426,0.508,0.808,1.047,1.162,1.607c0.098-0.154,0.194-0.311,0.285-0.469
	c-0.132-0.963-0.369-1.889-0.705-2.768C26.673,20.243,26.432,20.79,26.145,21.311"/>
<path fill="#000000" d="M7.96,25.834c-0.536,0.352-1.036,0.746-1.51,1.174c2.398,1.729,5.333,2.758,8.507,2.758
	c3.177,0,6.109-1.029,8.508-2.758c-0.476-0.428-0.975-0.822-1.511-1.174c-2.011,1.323-4.414,2.102-6.997,2.102
	S9.971,27.157,7.96,25.834"/>
<path fill="#000000" d="M14.957,11.428c5.45,0,10.1,3.438,11.932,8.255c0.334-0.883,0.571-1.811,0.705-2.771
	c-2.525-4.366-7.238-7.315-12.637-7.315c-5.398,0-10.109,2.95-12.636,7.315c0.133,0.962,0.371,1.888,0.706,2.771
	C4.856,14.865,9.507,11.428,14.957,11.428"/>
<path fill="#000000" d="M3.027,19.68c-0.335-0.881-0.574-1.805-0.706-2.767c-0.506,0.872-0.925,1.795-1.243,2.767
	c0.318,0.975,0.737,1.897,1.243,2.769C2.453,21.486,2.692,20.562,3.027,19.68"/>
<path fill="#000000" d="M26.887,19.68c0.336,0.883,0.573,1.807,0.705,2.769c0.506-0.87,0.926-1.794,1.242-2.769
	c-0.316-0.972-0.736-1.895-1.242-2.767C27.46,17.875,27.223,18.799,26.887,19.68"/>
<path fill="#000000" d="M14.957,16.258c-4.488,0-8.506,2.04-11.188,5.236c0.311,0.564,0.675,1.099,1.065,1.607
	c2.338-3.039,6-5.013,10.122-5.013c4.123,0,7.785,1.974,10.119,5.013c0.396-0.51,0.755-1.043,1.067-1.607
	C23.464,18.298,19.445,16.258,14.957,16.258"/>
<path fill="#000000" d="M3.77,21.311c-0.426,0.508-0.807,1.047-1.162,1.607c0.355,0.562,0.736,1.104,1.162,1.611
	c0.311-0.565,0.674-1.1,1.065-1.611C4.444,22.41,4.083,21.876,3.77,21.311"/>
<path fill="#000000" d="M26.145,24.529c0.426-0.508,0.808-1.049,1.162-1.611c-0.354-0.561-0.736-1.102-1.162-1.607
	c-0.312,0.565-0.674,1.101-1.062,1.607C25.471,23.43,25.831,23.964,26.145,24.529"/>
<path fill="#000000" d="M6.449,25.169c0.476,0.427,0.977,0.821,1.51,1.173c2.013-1.322,4.416-2.099,7-2.099
	c2.583,0,4.982,0.774,6.998,2.099c0.531-0.352,1.035-0.746,1.509-1.173c-2.399-1.729-5.332-2.759-8.506-2.759
	C11.781,22.41,8.849,23.439,6.449,25.169"/>
<path fill="#000000" d="M21.954,25.834c0.536,0.352,1.035,0.746,1.51,1.174c0.503-0.363,0.979-0.753,1.429-1.174
	c-0.449-0.423-0.926-0.812-1.429-1.173C22.989,25.086,22.49,25.482,21.954,25.834"/>
<path fill="#000000" d="M7.96,25.834c-0.536-0.352-1.036-0.748-1.51-1.173c-0.502,0.36-0.978,0.75-1.428,1.173
	c0.451,0.421,0.926,0.811,1.428,1.174C6.924,26.58,7.424,26.186,7.96,25.834"/>
</svg>
