<?xml version="1.0" encoding="utf-8"?>
<!-- Generator: Adobe Illustrator 16.0.0, SVG Export Plug-In . SVG Version: 6.00 Build 0)  -->
<!DOCTYPE svg PUBLIC "-//W3C//DTD SVG 1.1//EN" "http://www.w3.org/Graphics/SVG/1.1/DTD/svg11.dtd">
<svg version="1.1" id="Layer_1" xmlns="http://www.w3.org/2000/svg" xmlns:xlink="http://www.w3.org/1999/xlink" x="0px" y="0px"
	 width="30px" height="30px" viewBox="0 0 30 30" enable-background="new 0 0 30 30" xml:space="preserve">
<path fill="#000000" d="M4.763,18.749c-0.021-0.381-0.071-0.729-0.071-1.138c0-1.217,0.242-2.398,0.633-3.537
	c-1.054,1.003-1.939,2.174-2.644,3.459c0,0.027-0.007,0.052-0.007,0.078c0,1.054,0.086,2.025,0.228,2.943
	C3.475,19.902,4.097,19.302,4.763,18.749"/>
<path fill="#000000" d="M7.33,10.163c2.522-3.675,6.132-6.429,7.511-7.406c1.286,0.97,4.543,3.601,7.089,7.03
	c1.463,0.706,2.797,1.621,3.973,2.713C22.838,5.893,15.812,0.955,15.435,0.693L14.882,0.31l-0.564,0.364
	c-0.395,0.251-8.085,5.258-10.74,12.295C4.678,11.853,5.949,10.921,7.33,10.163"/>
<path fill="#000000" d="M24.242,13.717c0.652,1.496,1.068,3.062,1.068,4.658c0,0.146-0.023,0.268-0.027,0.411
	c0.68,0.567,1.312,1.182,1.889,1.849c0.088-0.717,0.154-1.453,0.154-2.26c0-0.333-0.045-0.658-0.072-0.984
	C26.467,15.993,25.438,14.767,24.242,13.717"/>
<path fill="#000000" d="M25.025,21.285c-0.238,1.244-0.648,2.295-1.267,3.14c0.199,0.132,0.421,0.234,0.613,0.374
	c-0.522,0.469-1.076,0.905-1.664,1.293c-0.142-0.093-0.299-0.16-0.442-0.248c-1.675,1.141-4.064,1.686-7.408,1.686
	c-3.021,0-5.285-0.605-6.928-1.795c-0.208,0.123-0.433,0.226-0.638,0.357c-0.59-0.388-1.141-0.824-1.663-1.293
	c0.265-0.188,0.56-0.337,0.837-0.512c-0.629-0.857-1.083-1.893-1.369-3.115c-0.444,0.439-0.864,0.901-1.246,1.398
	c-0.27-0.35-0.494-0.73-0.731-1.104c1.208,5.337,5.11,8.08,11.736,8.08c7.548,0,11.433-2.64,12.285-8.478
	c-0.306,0.52-0.627,1.024-0.992,1.5C25.801,22.118,25.424,21.691,25.025,21.285"/>
<path fill="#000000" d="M7.33,10.163c-0.831,1.212-1.531,2.53-2.005,3.911c2.52-2.401,5.926-3.88,9.674-3.88
	c3.549,0,6.771,1.348,9.243,3.523c-0.602-1.387-1.404-2.709-2.312-3.93c-2.1-1.014-4.44-1.609-6.93-1.609
	C12.218,8.178,9.615,8.912,7.33,10.163"/>
<path fill="#000000" d="M5.327,14.074c0.474-1.381,1.173-2.701,2.005-3.911c-1.383,0.756-2.653,1.691-3.751,2.804
	c-0.547,1.446-0.888,2.971-0.898,4.566C3.386,16.248,4.273,15.077,5.327,14.074"/>
<path fill="#000000" d="M21.932,9.787c0.906,1.221,1.709,2.545,2.312,3.932c1.192,1.049,2.225,2.276,3.012,3.67
	c-0.144-1.697-0.633-3.339-1.353-4.89C24.727,11.408,23.393,10.491,21.932,9.787"/>
<path fill="#000000" d="M4.763,18.749c0.052,0.875,0.163,1.685,0.333,2.423c2.545-2.539,6.037-4.125,9.905-4.125
	c3.929,0,7.472,1.631,10.022,4.238c0.146-0.758,0.238-1.583,0.259-2.499c-2.791-2.333-6.367-3.755-10.281-3.755
	C11.107,15.031,7.547,16.438,4.763,18.749"/>
<path fill="#000000" d="M25.283,18.786c-0.02,0.916-0.111,1.741-0.258,2.499c0.397,0.408,0.776,0.833,1.123,1.285
	c0.365-0.477,0.69-0.981,0.996-1.504c0.018-0.131,0.014-0.293,0.028-0.431C26.596,19.966,25.959,19.354,25.283,18.786"/>
<path fill="#000000" d="M5.099,21.172c-0.173-0.738-0.284-1.546-0.335-2.423c-0.665,0.553-1.291,1.153-1.859,1.806
	c0.052,0.324,0.148,0.605,0.218,0.916c0.237,0.369,0.461,0.752,0.729,1.1C4.232,22.075,4.657,21.613,5.099,21.172"/>
<path fill="#000000" d="M6.467,24.287c0.41,0.559,0.9,1.038,1.463,1.447c2.083-1.224,4.486-1.957,7.069-1.957
	c2.665,0,5.142,0.772,7.267,2.065c0.582-0.397,1.09-0.862,1.493-1.419c-2.526-1.656-5.516-2.666-8.76-2.666
	C11.854,21.759,8.949,22.717,6.467,24.287"/>
<path fill="#000000" d="M6.467,24.287c-0.278,0.175-0.574,0.32-0.837,0.512c0.522,0.471,1.075,0.905,1.663,1.293
	c0.206-0.133,0.428-0.234,0.638-0.357C7.367,25.325,6.877,24.846,6.467,24.287"/>
<path fill="#000000" d="M22.266,25.844c0.146,0.088,0.301,0.154,0.443,0.248c0.588-0.388,1.141-0.822,1.662-1.293
	c-0.191-0.138-0.408-0.242-0.611-0.374C23.357,24.98,22.85,25.445,22.266,25.844"/>
</svg>
