<?xml version="1.0" encoding="utf-8"?>
<!-- Generator: Adobe Illustrator 16.0.0, SVG Export Plug-In . SVG Version: 6.00 Build 0)  -->
<!DOCTYPE svg PUBLIC "-//W3C//DTD SVG 1.1//EN" "http://www.w3.org/Graphics/SVG/1.1/DTD/svg11.dtd">
<svg version="1.1" id="Layer_1" xmlns="http://www.w3.org/2000/svg" xmlns:xlink="http://www.w3.org/1999/xlink" x="0px" y="0px"
	 width="30px" height="30px" viewBox="0 0 30 30" enable-background="new 0 0 30 30" xml:space="preserve">
<path fill="#000000" d="M14.999,29.576c-8.038,0-14.575-6.539-14.575-14.578c0-8.037,6.537-14.576,14.575-14.576
	c8.04,0,14.577,6.539,14.577,14.576C29.576,23.037,23.039,29.576,14.999,29.576 M14.999,2.25c-7.03,0-12.748,5.718-12.748,12.749
	c0,7.03,5.718,12.748,12.748,12.748c7.032,0,12.749-5.718,12.749-12.748C27.748,7.968,22.031,2.25,14.999,2.25"/>
<path fill="#000000" d="M19.324,14.999c0,2.39-1.936,4.326-4.325,4.326c-2.388,0-4.324-1.937-4.324-4.326
	c0-2.388,1.936-4.325,4.324-4.325C17.389,10.673,19.324,12.61,19.324,14.999"/>
</svg>
