<?xml version="1.0" encoding="utf-8"?>
<!-- Generator: Adobe Illustrator 16.0.0, SVG Export Plug-In . SVG Version: 6.00 Build 0)  -->
<!DOCTYPE svg PUBLIC "-//W3C//DTD SVG 1.1//EN" "http://www.w3.org/Graphics/SVG/1.1/DTD/svg11.dtd">
<svg version="1.1" id="Layer_1" xmlns="http://www.w3.org/2000/svg" xmlns:xlink="http://www.w3.org/1999/xlink" x="0px" y="0px"
	 width="115.575px" height="29.353px" viewBox="0 0 115.575 29.353" enable-background="new 0 0 115.575 29.353"
	 xml:space="preserve">
<path d="M0.344,21.279L0,15.49h0.282c0.626,3.253,2.723,6.197,4.756,6.509v0.281C3.036,22.124,1.158,21.655,0.344,21.279
	 M6.384,22.249v-0.282c2.222-0.125,4.037-1.313,4.037-4.036c0-2.033-1.627-3.16-4.413-4.631C3.443,11.922,0.47,10.327,0.47,7.229
	c0-3.067,2.66-4.913,5.382-5.132v0.282C3.975,2.535,3.005,3.661,3.005,5.633c0,2.284,1.846,3.191,4.756,4.788
	c2.785,1.533,5.194,2.879,5.194,6.29C12.955,20.841,9.075,22.062,6.384,22.249 M11.61,7.447c-0.625-2.597-1.784-4.756-4.319-5.1
	V2.065c1.189,0,3.349,0.407,4.351,0.75l0.25,4.631H11.61z"/>
<path d="M19.06,18.9c0,2.034,0.407,2.661,2.065,2.879v0.251h-6.791v-0.251c1.752-0.218,2.035-0.782,2.035-2.879V4.068
	c0-1.064-0.501-1.502-0.846-1.784c-0.25-0.219-0.532-0.407-0.812-0.532V1.565L19.09,0l0.063,0.031
	c-0.032,1.283-0.094,3.129-0.094,4.381V18.9z M25.13,13.174c0-1.721-0.595-2.785-2.566-2.785c-0.907,0-1.815,0.219-2.566,0.5v-0.062
	c1.033-1.221,2.785-2.19,4.256-2.19c2.503,0,3.567,1.596,3.567,3.974v6.29c0,2.097,0.282,2.661,2.034,2.879v0.251h-6.79v-0.251
	c1.658-0.218,2.065-0.845,2.065-2.879V13.174z"/>
<path d="M35.959,21.561c0.47,0.251,0.939,0.438,1.377,0.47v0.25c-3.692-0.062-6.853-2.566-6.853-6.759
	c0-4.224,3.536-6.571,6.134-6.853v0.25c-0.782,0.094-1.502,0.626-2.034,1.377c-0.688,1.001-1.158,2.848-1.158,5.163
	C33.425,18.713,34.301,20.684,35.959,21.561 M39.088,9.263c-0.469-0.25-0.907-0.345-1.376-0.375v-0.25
	c3.693,0.062,6.853,2.597,6.853,6.791c0,4.224-3.473,6.445-6.133,6.821v-0.251c0.657-0.093,1.501-0.688,2.033-1.47
	c0.689-1.002,1.158-2.754,1.158-5.07C41.623,12.204,40.747,10.139,39.088,9.263"/>
<path d="M52.954,22.28c-0.564,0-1.784-0.188-2.41-0.438v4.381c0,2.035,0.626,2.66,2.285,2.88v0.25h-7.009v-0.25
	c1.752-0.22,2.033-0.783,2.033-2.88V12.705c0-1.063-0.5-1.502-0.844-1.784c-0.251-0.219-0.532-0.406-0.814-0.532v-0.188l4.288-1.596
	l0.062,0.032v8.699c0,1.314,0.157,2.723,1.096,3.63c0.782,0.751,1.971,0.876,2.941,0.908v0.25
	C54.236,22.218,53.642,22.28,52.954,22.28 M55.833,21.529c1.408-0.939,2.441-3.474,2.441-5.978c0-2.91-1.472-5.288-4.601-5.288
	c-0.876,0-1.846,0.156-2.534,0.532v-0.063c0.907-1.188,3.035-2.096,4.442-2.096c4.257,0,5.445,3.128,5.445,5.976
	c0,3.661-2.003,5.883-5.194,7.166V21.529z"/>
<path d="M63.813,21.279l-0.345-5.79h0.282c0.626,3.253,2.723,6.197,4.757,6.509v0.281C66.504,22.124,64.627,21.655,63.813,21.279
	 M69.853,22.249v-0.282c2.222-0.125,4.038-1.313,4.038-4.036c0-2.033-1.628-3.16-4.413-4.631c-2.566-1.377-5.539-2.973-5.539-6.071
	c0-3.067,2.66-4.913,5.382-5.132v0.282c-1.876,0.157-2.847,1.283-2.847,3.254c0,2.284,1.846,3.191,4.757,4.788
	c2.784,1.533,5.193,2.879,5.193,6.29C76.424,20.841,72.544,22.062,69.853,22.249 M75.079,7.447c-0.626-2.597-1.784-4.756-4.319-5.1
	V2.065c1.19,0,3.349,0.407,4.35,0.75l0.251,4.631H75.079z"/>
<path d="M79.212,4.068c0-1.064-0.502-1.502-0.846-1.784c-0.251-0.219-0.532-0.407-0.813-0.532V1.565L81.933,0l0.064,0.031
	c-0.032,1.283-0.094,3.129-0.094,4.381V18.9c0,2.034,0.405,2.66,2.064,2.88v0.25h-6.791v-0.25c1.753-0.22,2.035-0.783,2.035-2.88
	V4.068z M84.655,13.174c0.939,1.659,4.35,6.29,5.445,7.26c1.096,0.971,2.128,1.314,2.66,1.378v0.219
	c-0.658,0.062-2.003,0.094-3.099,0.094c-1.377,0-1.814-0.407-2.565-1.189c-1.44-1.533-3.41-4.411-4.286-5.883L84.655,13.174z
	 M91.979,9.2c-0.908,0.157-2.097,0.5-3.129,1.033c-1.221,0.625-2.379,1.564-3.255,2.378l-0.188-0.188
	c0.596-0.688,0.877-1.221,0.877-1.847S85.845,9.357,84.75,9.2V8.95h7.229V9.2z"/>
<path d="M94.702,12.861c0-1.064-0.5-1.596-0.844-1.878c-0.251-0.219-0.657-0.469-0.939-0.594v-0.188l4.507-1.597l0.062,0.032
	c-0.031,1.282-0.095,3.129-0.095,4.381V18.9c0,2.034,0.5,2.661,2.159,2.879v0.251h-6.884v-0.251
	c1.752-0.218,2.033-0.782,2.033-2.879V12.861z M95.985,1.94c0.938,0,1.69,0.814,1.69,1.721c0,0.908-0.752,1.69-1.69,1.69
	c-0.907,0-1.69-0.782-1.69-1.69C94.295,2.754,95.078,1.94,95.985,1.94"/>
<path d="M104.779,18.9c0,2.034,0.407,2.661,2.065,2.879v0.251h-6.79v-0.251c1.752-0.218,2.034-0.782,2.034-2.879v-6.195
	c0-1.064-0.5-1.502-0.846-1.784c-0.251-0.219-0.532-0.406-0.812-0.532v-0.188l4.286-1.597l0.062,0.032V18.9z M110.851,13.111
	c0-1.721-0.595-2.722-2.565-2.722c-0.908,0-1.815,0.219-2.566,0.5v-0.062c1.032-1.221,2.784-2.19,4.255-2.19
	c2.504,0,3.567,1.533,3.567,3.911V18.9c0,2.097,0.282,2.661,2.034,2.879v0.251h-6.79v-0.251c1.658-0.218,2.065-0.845,2.065-2.879
	V13.111z"/>
</svg>
