<?xml version="1.0" encoding="utf-8"?>
<!-- Generator: Adobe Illustrator 16.0.0, SVG Export Plug-In . SVG Version: 6.00 Build 0)  -->
<!DOCTYPE svg PUBLIC "-//W3C//DTD SVG 1.1//EN" "http://www.w3.org/Graphics/SVG/1.1/DTD/svg11.dtd">
<svg version="1.1" id="Layer_1" xmlns="http://www.w3.org/2000/svg" xmlns:xlink="http://www.w3.org/1999/xlink" x="0px" y="0px"
	 width="30px" height="30px" viewBox="0 0 30 30" enable-background="new 0 0 30 30" xml:space="preserve">
<path fill="#000000" d="M15.002,28.986c-7.726,0-14.01-6.284-14.01-14.008c0-7.726,6.284-14.01,14.01-14.01
	c7.723,0,14.007,6.284,14.007,14.01C29.01,22.702,22.727,28.986,15.002,28.986 M15.002,2.725C8.247,2.725,2.75,8.22,2.75,14.978
	c0,6.756,5.497,12.252,12.253,12.252s12.251-5.496,12.251-12.252C27.254,8.22,21.759,2.725,15.002,2.725"/>
<rect x="14.121" y="1.81" transform="matrix(-0.7074 -0.7068 0.7068 -0.7074 15.1094 35.9714)" fill="#000000" width="1.759" height="26.096"/>
<rect x="7.574" y="23.43" transform="matrix(-0.7072 -0.707 0.707 -0.7072 4.0641 50.3003)" fill="#000000" width="9.747" height="1.757"/>
<rect x="10.532" y="21.156" transform="matrix(-0.707 -0.7072 0.7072 -0.707 13.5516 49.685)" fill="#000000" width="13.074" height="1.757"/>
<rect x="13.87" y="17.923" transform="matrix(-0.7071 -0.7071 0.7071 -0.7071 21.9575 46.6958)" fill="#000000" width="13.559" height="1.756"/>
<rect x="17.604" y="13.751" transform="matrix(-0.7071 -0.7071 0.7071 -0.7071 29.4837 41.4713)" fill="#000000" width="11.453" height="1.757"/>
</svg>
