<?xml version="1.0" encoding="utf-8"?>
<!-- Generator: Adobe Illustrator 16.0.0, SVG Export Plug-In . SVG Version: 6.00 Build 0)  -->
<!DOCTYPE svg PUBLIC "-//W3C//DTD SVG 1.1//EN" "http://www.w3.org/Graphics/SVG/1.1/DTD/svg11.dtd">
<svg version="1.1" id="Layer_1" xmlns="http://www.w3.org/2000/svg" xmlns:xlink="http://www.w3.org/1999/xlink" x="0px" y="0px"
	 width="30px" height="30px" viewBox="0 0 30 30" enable-background="new 0 0 30 30" xml:space="preserve">
<path fill="#000" d="M7.864,29.051c-4.163,0-7.551-3.387-7.551-7.555c0-4.16,3.389-7.549,7.551-7.549
	c4.165,0,7.554,3.389,7.554,7.549C15.417,25.664,12.028,29.051,7.864,29.051 M7.864,16.074c-2.991,0-5.423,2.432-5.423,5.422
	c0,2.994,2.432,5.428,5.423,5.428c2.99,0,5.425-2.434,5.425-5.428C13.289,18.506,10.854,16.074,7.864,16.074"/>
<path fill="#000" d="M21.957,18.814c-4.16,0-7.55-3.39-7.55-7.554c0-4.163,3.39-7.551,7.55-7.551
	c4.165,0,7.557,3.389,7.557,7.551C29.514,15.426,26.122,18.814,21.957,18.814 M21.957,5.837c-2.988,0-5.422,2.435-5.422,5.424
	c0,2.992,2.434,5.427,5.422,5.427c2.992,0,5.427-2.435,5.427-5.427C27.384,8.271,24.949,5.837,21.957,5.837"/>
<path fill="#000" d="M12.897,6.23c0,2.78-2.254,5.033-5.033,5.033c-2.779,0-5.03-2.253-5.03-5.033s2.251-5.033,5.03-5.033
	C10.643,1.197,12.897,3.45,12.897,6.23"/>
</svg>
