<?xml version="1.0" encoding="utf-8"?>
<!-- Generator: Adobe Illustrator 16.0.0, SVG Export Plug-In . SVG Version: 6.00 Build 0)  -->
<!DOCTYPE svg PUBLIC "-//W3C//DTD SVG 1.1//EN" "http://www.w3.org/Graphics/SVG/1.1/DTD/svg11.dtd">
<svg version="1.1" id="Layer_1" xmlns="http://www.w3.org/2000/svg" xmlns:xlink="http://www.w3.org/1999/xlink" x="0px" y="0px"
	 width="30px" height="30px" viewBox="0 0 30 30" enable-background="new 0 0 30 30" xml:space="preserve">
<path fill="#000000" d="M24.652,25.367h-0.029c-6.762-0.211-7.997-2.623-9.562-5.678c-0.482-0.937-1.025-1.996-1.792-3.103
	c-2.467-3.563-8.058-2.397-9.715-1.958c-0.461,0.127-0.948-0.153-1.073-0.621c-0.125-0.468,0.152-0.949,0.621-1.074
	c1.932-0.518,8.489-1.851,11.608,2.655c0.832,1.199,1.404,2.313,1.909,3.3c1.503,2.93,2.332,4.545,8.059,4.725
	c0.484,0.014,0.864,0.418,0.848,0.904C25.512,24.993,25.123,25.367,24.652,25.367"/>
<path fill="#000000" d="M25.921,20.525c-0.021,0-0.044-0.004-0.063-0.004c-5.008-0.367-6.16-2.429-7.493-4.813
	c-0.544-0.973-1.16-2.074-2.128-3.208C11.657,7.144,5.758,9.292,5.511,9.387C5.055,9.555,4.553,9.331,4.38,8.88
	C4.208,8.429,4.434,7.923,4.884,7.75c0.069-0.028,7.285-2.704,12.681,3.613c1.084,1.265,1.744,2.447,2.328,3.49
	c1.264,2.258,2.024,3.622,6.092,3.92c0.481,0.037,0.846,0.457,0.811,0.939C26.76,20.174,26.376,20.525,25.921,20.525"/>
<path fill="#000000" d="M26.671,15.312c-3.511,0-4.682-1.833-6.037-3.954c-0.813-1.276-1.739-2.72-3.362-4.25
	c-3.747-3.519-8.599-2.265-8.8-2.211c-0.468,0.125-0.949-0.15-1.076-0.615C7.267,3.816,7.541,3.335,8.007,3.207
	C8.25,3.14,13.996,1.625,18.473,5.832c1.783,1.678,2.812,3.288,3.642,4.58c1.336,2.096,2.007,3.148,4.558,3.148
	c0.482,0,0.876,0.391,0.876,0.875C27.547,14.921,27.154,15.312,26.671,15.312"/>
<path fill="#000000" d="M21.221,29.835c-5.884,0-7.987-3.856-10.424-8.319C8.54,17.378,3.9,19.493,3.703,19.583
	c-0.441,0.208-0.961,0.017-1.166-0.42c-0.207-0.438-0.018-0.961,0.42-1.167c2.183-1.023,6.949-1.782,9.379,2.678
	c2.657,4.868,4.257,7.409,8.885,7.409c0.482,0,0.875,0.392,0.875,0.875C22.096,29.443,21.703,29.835,21.221,29.835"/>
<path fill="#000000" d="M10.978,29.408c-0.361,0-0.699-0.225-0.827-0.583c-0.901-2.536-2.053-4.157-3.329-4.691
	c-0.746-0.31-1.559-0.261-2.416,0.142c-0.438,0.203-0.961,0.015-1.167-0.422c-0.206-0.437-0.017-0.961,0.421-1.164
	c1.306-0.616,2.633-0.676,3.835-0.172c1.772,0.738,3.221,2.666,4.309,5.723c0.162,0.455-0.077,0.958-0.534,1.117
	C11.174,29.395,11.076,29.408,10.978,29.408"/>
<path fill="#000000" d="M24.65,8.823c-0.359,0-0.696-0.224-0.826-0.583c-1.916-5.391-5.182-5.943-6.938-6.242l-0.289-0.05
	c-0.478-0.085-0.795-0.541-0.709-1.017c0.084-0.478,0.541-0.798,1.019-0.708L17.18,0.27c1.959,0.332,6.036,1.023,8.297,7.383
	c0.162,0.456-0.074,0.958-0.533,1.12C24.85,8.808,24.749,8.823,24.65,8.823"/>
</svg>
